<svg width="120" height="120" viewBox="0 0 120 120" fill="none" xmlns="http://www.w3.org/2000/svg">
<g clip-path="url(#clip0_3387_20533)">
<path d="M80.1703 107.1C76.5453 114.935 68.6303 120 60.0003 120C48.5003 120 39.0103 111.215 37.9003 100H30.2553C22.5503 100 15.3753 96.5553 10.5603 90.5453C5.75027 84.5503 3.94027 76.7953 5.60527 69.2753L12.2203 43.7453C12.9153 41.0753 15.6353 39.4703 18.3153 40.1603C20.9903 40.8503 22.5903 43.5803 21.9003 46.2553L15.3303 71.6103C14.3653 75.9853 15.4553 80.6703 18.3653 84.2903C21.2753 87.9203 25.6103 90.0003 30.2603 90.0003H65.0053C67.7653 90.0003 70.0053 92.2403 70.0053 95.0003C70.0053 97.7603 67.7653 100 65.0053 100H48.0003C49.0453 105.68 54.0303 110 60.0053 110C64.7503 110 69.1053 107.215 71.1003 102.9C72.2603 100.395 75.2453 99.3103 77.7353 100.46C80.2403 101.62 81.3303 104.59 80.1703 107.1ZM118.535 118.535C117.56 119.51 116.28 120 115 120C113.72 120 112.44 119.51 111.465 118.535L1.46527 8.53527C-0.489727 6.58027 -0.489727 3.42027 1.46527 1.46527C3.42027 -0.489727 6.58027 -0.489727 8.53527 1.46527L23.8603 16.7903C32.7153 6.19527 45.8903 0.000273384 60.0003 0.000273384C81.0903 0.000273384 99.7653 14.1903 105.41 34.5103L114.095 68.0803C116.195 75.6553 114.655 83.6853 109.85 90.0203C107.975 92.4853 105.73 94.5353 103.205 96.1303L118.535 111.46C120.49 113.415 120.49 116.575 118.535 118.53V118.535ZM30.9703 23.9003L95.8253 88.7553C98.1953 87.7303 100.265 86.1103 101.88 83.9853C104.785 80.1553 105.72 75.3053 104.435 70.6753L95.7553 37.1053C91.3303 21.1853 76.6203 10.0053 60.0053 10.0053C48.5753 10.0053 37.9403 15.1503 30.9753 23.9053L30.9703 23.9003Z" fill="#9D9D9D"/>
</g>
<defs>
<clipPath id="clip0_3387_20533">
<rect width="120" height="120" fill="white"/>
</clipPath>
</defs>
</svg>
